<?xml version="1.0" standalone="no"?>
<!DOCTYPE svg PUBLIC "-//W3C//DTD SVG 20010904//EN"
 "http://www.w3.org/TR/2001/REC-SVG-20010904/DTD/svg10.dtd">
<svg version="1.0" xmlns="http://www.w3.org/2000/svg"
 width="139.000000pt" height="139.000000pt" viewBox="0 0 139.000000 139.000000"
 preserveAspectRatio="xMidYMid meet">
<metadata>
Created by potrace 1.11, written by Peter Selinger 2001-2013
</metadata>
<g transform="translate(0.000000,139.000000) scale(0.100000,-0.100000)"
fill="#000000" stroke="none">
<path d="M923 1040 c-56 -12 -99 -55 -137 -133 -19 -39 -37 -81 -40 -91 -11
-34 -14 -12 -6 45 15 106 -14 179 -72 179 -80 0 -161 -93 -222 -257 -15 -37
-24 -54 -21 -38 36 212 19 285 -68 285 -34 0 -46 -6 -77 -39 -41 -42 -73 -120
-60 -142 7 -10 21 -1 60 35 68 64 86 60 82 -19 -4 -96 -22 -233 -43 -330 -29
-137 -24 -165 31 -165 38 0 55 25 69 99 26 132 114 362 171 441 25 35 55 39
71 8 17 -31 5 -184 -26 -338 -35 -178 -32 -210 20 -210 33 0 54 31 66 96 44
251 116 449 170 468 49 17 59 4 59 -71 0 -37 -9 -111 -20 -163 -44 -210 -45
-253 -3 -295 54 -53 136 -41 202 30 43 47 47 63 28 109 l-12 29 -29 -41 c-47
-68 -96 -90 -116 -52 -8 14 -3 57 20 169 43 213 39 322 -12 368 -30 27 -47 31
-85 23z"/>
</g>
</svg>
